name analog
datacolumns 19
datarows 64
range 0.555 0.5865
endheader
time	ground_force_vx	ground_force_vy	ground_force_vz	ground_force_px	ground_force_py	ground_force_pz	l_ground_force_vx	l_ground_force_vy	l_ground_force_vz	l_ground_force_px	l_ground_force_py	l_ground_force_pz	ground_torque_x	ground_torque_y	ground_torque_z	l_ground_torque_x	l_ground_torque_y	l_ground_torque_z
0.555	-0.0	-0.0	-0.0	-16.949996948242188	29.213024139404297	-865.9110107421875	-0.0	-0.0	-0.0	-0.0	-0.0	-0.0	-0.0	-0.0	-0.0	-0.0	-0.0	-0.0
0.5555	-0.0	-0.0	-0.0	-17.02712631225586	29.62254905700684	-868.4118041992188	-0.0	-0.0	-0.0	-0.0	-0.0	-0.0	-0.0	-0.0	-0.0	-0.0	-0.0	-0.0
0.556	-0.0	-0.0	-0.0	-17.676002502441406	29.34852409362793	-870.7225341796875	-0.0	-0.0	-0.0	-0.0	-0.0	-0.0	-0.0	-0.0	-0.0	-0.0	-0.0	-0.0
0.5565	-0.0	-0.0	-0.0	-17.599367141723633	29.136659622192383	-874.2052001953125	-0.0	-0.0	-0.0	-0.0	-0.0	-0.0	-0.0	-0.0	-0.0	-0.0	-0.0	-0.0
0.557	-0.0	-0.0	-0.0	-17.89736557006836	29.778230667114254	-876.189453125	-0.0	-0.0	-0.0	-0.0	-0.0	-0.0	-0.0	-0.0	-0.0	-0.0	-0.0	-0.0
0.5575	-0.0	-0.0	-0.0	-18.36449241638184	29.913818359375	-878.1400756835938	-0.0	-0.0	-0.0	-0.0	-0.0	-0.0	-0.0	-0.0	-0.0	-0.0	-0.0	-0.0
0.558	-0.0	-0.0	-0.0	-18.164875030517575	30.40645408630371	-878.6282348632812	-0.0	-0.0	-0.0	-0.0	-0.0	-0.0	-0.0	-0.0	-0.0	-0.0	-0.0	-0.0
0.5585	-0.0	-0.0	-0.0	-18.088823318481445	31.271543502807617	-881.4019165039062	-0.0	-0.0	-0.0	-0.0	-0.0	-0.0	-0.0	-0.0	-0.0	-0.0	-0.0	-0.0
0.559	-0.0	-0.0	-0.0	-18.075523376464844	31.229820251464844	-883.4384765625	-0.0	-0.0	-0.0	-0.0	-0.0	-0.0	-0.0	-0.0	-0.0	-0.0	-0.0	-0.0
0.5595	-0.0	-0.0	-0.0	-17.917762756347656	32.93049240112305	-887.1597290039062	-0.0	-0.0	-0.0	-0.0	-0.0	-0.0	-0.0	-0.0	-0.0	-0.0	-0.0	-0.0
0.56	-0.0	-0.0	-0.0	-17.904014587402344	33.85577774047852	-890.2306518554688	-0.0	-0.0	-0.0	-0.0	-0.0	-0.0	-0.0	-0.0	-0.0	-0.0	-0.0	-0.0
0.5605	-0.0	-0.0	-0.0	-16.854337692260742	34.98744583129883	-893.8430786132812	-0.0	-0.0	-0.0	-0.0	-0.0	-0.0	-0.0	-0.0	-0.0	-0.0	-0.0	-0.0
0.561	-0.0	-0.0	-0.0	-16.88112449645996	36.65291595458984	-895.7201538085938	-0.0	-0.0	-0.0	-0.0	-0.0	-0.0	-0.0	-0.0	-0.0	-0.0	-0.0	-0.0
0.5615	-0.0	-0.0	-0.0	-16.36004066467285	37.64751815795898	-899.732177734375	-0.0	-0.0	-0.0	-0.0	-0.0	-0.0	-0.0	-0.0	-0.0	-0.0	-0.0	-0.0
0.562	-0.0	-0.0	-0.0	-16.236312866210938	40.143211364746094	-899.9024658203125	-0.0	-0.0	-0.0	-0.0	-0.0	-0.0	-0.0	-0.0	-0.0	-0.0	-0.0	-0.0
0.5625	-0.0	-0.0	-0.0	-15.50269603729248	41.91120529174805	-901.6101684570312	-0.0	-0.0	-0.0	-0.0	-0.0	-0.0	-0.0	-0.0	-0.0	-0.0	-0.0	-0.0
0.5630000000000001	-0.0	-0.0	-0.0	-14.695003509521484	43.6986083984375	-902.70849609375	-0.0	-0.0	-0.0	-0.0	-0.0	-0.0	-0.0	-0.0	-0.0	-0.0	-0.0	-0.0
0.5635	-0.0	-0.0	-0.0	-13.976017951965332	45.57004928588867	-901.2557373046876	-0.0	-0.0	-0.0	-0.0	-0.0	-0.0	-0.0	-0.0	-0.0	-0.0	-0.0	-0.0
0.5640000000000001	-0.0	-0.0	-0.0	-13.738418579101562	46.97602844238281	-903.2360229492188	-0.0	-0.0	-0.0	-0.0	-0.0	-0.0	-0.0	-0.0	-0.0	-0.0	-0.0	-0.0
0.5645	-0.0	-0.0	-0.0	-13.614324569702148	47.86302947998047	-904.4327392578124	-0.0	-0.0	-0.0	-0.0	-0.0	-0.0	-0.0	-0.0	-0.0	-0.0	-0.0	-0.0
0.5650000000000001	-0.0	-0.0	-0.0	-13.234286308288574	48.165313720703125	-906.7511596679688	-0.0	-0.0	-0.0	-0.0	-0.0	-0.0	-0.0	-0.0	-0.0	-0.0	-0.0	-0.0
0.5655	-0.0	-0.0	-0.0	-13.735025405883787	49.12664413452149	-910.3593139648438	-0.0	-0.0	-0.0	-0.0	-0.0	-0.0	-0.0	-0.0	-0.0	-0.0	-0.0	-0.0
0.5660000000000001	-0.0	-0.0	-0.0	-14.002867698669434	49.467376708984375	-912.8313598632812	-0.0	-0.0	-0.0	-0.0	-0.0	-0.0	-0.0	-0.0	-0.0	-0.0	-0.0	-0.0
0.5665	-0.0	-0.0	-0.0	-13.719464302062988	49.85621643066406	-918.064697265625	-0.0	-0.0	-0.0	-0.0	-0.0	-0.0	-0.0	-0.0	-0.0	-0.0	-0.0	-0.0
0.5670000000000001	-0.0	-0.0	-0.0	-13.522332191467283	50.734012603759766	-923.2869262695312	-0.0	-0.0	-0.0	-0.0	-0.0	-0.0	-0.0	-0.0	-0.0	-0.0	-0.0	-0.0
0.5675	-0.0	-0.0	-0.0	-12.954272270202637	51.24772262573242	-925.322509765625	-0.0	-0.0	-0.0	-0.0	-0.0	-0.0	-0.0	-0.0	-0.0	-0.0	-0.0	-0.0
0.5680000000000001	-0.0	-0.0	-0.0	-12.06014347076416	52.23041534423828	-928.5174560546876	-0.0	-0.0	-0.0	-0.0	-0.0	-0.0	-0.0	-0.0	-0.0	-0.0	-0.0	-0.0
0.5685	-0.0	-0.0	-0.0	-11.84809112548828	53.65961456298828	-930.48291015625	-0.0	-0.0	-0.0	-0.0	-0.0	-0.0	-0.0	-0.0	-0.0	-0.0	-0.0	-0.0
0.5690000000000001	-0.0	-0.0	-0.0	-11.04507064819336	54.10215759277344	-929.9227294921876	-0.0	-0.0	-0.0	-0.0	-0.0	-0.0	-0.0	-0.0	-0.0	-0.0	-0.0	-0.0
0.5695	-0.0	-0.0	-0.0	-10.420355796813965	54.83150863647461	-927.1011352539062	-0.0	-0.0	-0.0	-0.0	-0.0	-0.0	-0.0	-0.0	-0.0	-0.0	-0.0	-0.0
0.5700000000000001	-0.0	-0.0	-0.0	-9.259756088256836	56.02678680419922	-922.5059814453124	-0.0	-0.0	-0.0	-0.0	-0.0	-0.0	-0.0	-0.0	-0.0	-0.0	-0.0	-0.0
0.5705	-0.0	-0.0	-0.0	-8.599825859069824	56.38396072387695	-915.9379272460938	-0.0	-0.0	-0.0	-0.0	-0.0	-0.0	-0.0	-0.0	-0.0	-0.0	-0.0	-0.0
0.5710000000000001	-0.0	-0.0	-0.0	-7.547214984893799	57.54259490966797	-909.0144653320312	-0.0	-0.0	-0.0	-0.0	-0.0	-0.0	-0.0	-0.0	-0.0	-0.0	-0.0	-0.0
0.5715	-0.0	-0.0	-0.0	-6.779998779296875	60.020633697509766	-902.3036499023438	-0.0	-0.0	-0.0	-0.0	-0.0	-0.0	-0.0	-0.0	-0.0	-0.0	-0.0	-0.0
0.5720000000000001	-0.0	-0.0	-0.0	-5.941303730010986	62.141483306884766	-895.6666259765625	-0.0	-0.0	-0.0	-0.0	-0.0	-0.0	-0.0	-0.0	-0.0	-0.0	-0.0	-0.0
0.5725	-0.0	-0.0	-0.0	-5.1742095947265625	62.926063537597656	-884.4319458007812	-0.0	-0.0	-0.0	-0.0	-0.0	-0.0	-0.0	-0.0	-0.0	-0.0	-0.0	-0.0
0.5730000000000001	-0.0	-0.0	-0.0	-5.050192832946777	63.67388153076172	-873.5560913085938	-0.0	-0.0	-0.0	-0.0	-0.0	-0.0	-0.0	-0.0	-0.0	-0.0	-0.0	-0.0
0.5735	-0.0	-0.0	-0.0	-4.47926664352417	64.10049438476562	-861.7650146484375	-0.0	-0.0	-0.0	-0.0	-0.0	-0.0	-0.0	-0.0	-0.0	-0.0	-0.0	-0.0
0.5740000000000001	-0.0	-0.0	-0.0	-4.405632495880127	64.49613189697266	-850.382568359375	5.918453216552734	-3.407707691192627	-8.279227256774902	-0.0	-0.0	-0.0	-0.0	-0.0	-0.0	2343.464111328125	937.241455078125	1302.8563232421875
0.5745	-0.0	-0.0	-0.0	-3.602417230606079	65.17341613769531	-835.9852294921875	20.16810607910156	-8.93765926361084	-27.29680061340332	-0.0	-0.0	-0.0	-0.0	-0.0	-0.0	7617.814453125	3135.556640625	4278.3447265625
0.5750000000000001	-0.0	-0.0	-0.0	-3.107905626296997	65.20491027832031	-822.6229248046875	16.46131706237793	-3.9713947772979736	-31.77279663085937	-0.0	-0.0	-0.0	-0.0	-0.0	-0.0	9155.6650390625	3943.267822265625	4005.444580078125
0.5755	-0.0	-0.0	-0.0	-2.8909454345703125	65.5611801147461	-808.3624267578125	12.468873023986816	-5.171803951263428	-33.93477249145508	-0.0	-0.0	-0.0	-0.0	-0.0	-0.0	9735.271484375	3781.223876953125	2874.157470703125
0.5760000000000001	-0.0	-0.0	-0.0	-1.9989205598831177	65.44135284423828	-790.91357421875	16.138896942138672	-7.856338977813721	-45.53106689453125	-0.0	-0.0	-0.0	-0.0	-0.0	-0.0	12296.4365234375	5394.30859375	3432.135986328125
0.5765	-0.0	-0.0	-0.0	-1.357998013496399	65.06520080566406	-774.5368041992188	19.458721160888672	-11.001944541931152	-66.11190032958984	-0.0	-0.0	-0.0	-0.0	-0.0	-0.0	17562.755859375	7630.04638671875	3949.935791015625
0.577	-0.0	-0.0	-0.0	-0.1983871161937713	64.28296661376953	-759.4158935546875	18.205053329467773	-12.944772720336914	-86.86262512207031	-0.0	-0.0	-0.0	-0.0	-0.0	-0.0	23165.822265625	9996.435546875	3433.068115234375
0.5775	-0.0	-0.0	-0.0	1.115381956100464	63.64304733276367	-741.9022827148438	14.390728950500488	-13.457782745361328	-104.79842376708984	-0.0	-0.0	-0.0	-0.0	-0.0	-0.0	27908.0234375	11976.5830078125	2303.01806640625
0.578	-0.0	-0.0	-0.0	3.1182165145874023	62.78843307495117	-729.0439453125	11.318840980529783	-14.553457260131836	-127.28520965576172	-0.0	-0.0	-0.0	-0.0	-0.0	-0.0	33224.13671875	14393.3408203125	1256.8328857421875
0.5785	-0.0	-0.0	-0.0	4.650414943695068	61.75136184692383	-717.8064575195312	9.99177360534668	-16.878328323364258	-150.13519287109375	-0.0	-0.0	-0.0	-0.0	-0.0	-0.0	39261.2734375	16770.779296875	560.994384765625
0.579	-0.0	-0.0	-0.0	6.990218162536621	61.17522430419922	-706.9403076171875	8.802495956420898	-19.92062187194824	-174.68728637695312	-0.0	-0.0	-0.0	-0.0	-0.0	-0.0	45808.421875	19413.294921875	-253.644287109375
0.5795	-0.0	-0.0	-0.0	9.099472045898438	60.51954650878906	-696.5535278320312	6.25026273727417	-22.97546768188477	-197.7298126220703	-0.0	-0.0	-0.0	-0.0	-0.0	-0.0	51154.7421875	21898.486328125	-1216.21630859375
0.58	-0.0	-0.0	-0.0	11.182622909545898	60.2255859375	-688.2857666015625	2.827422380447388	-25.54537010192871	-222.9285125732422	-0.0	-0.0	-0.0	-0.0	-0.0	-0.0	57600.99609375	24341.00390625	-2510.682373046875
0.5805	-0.0	-0.0	-0.0	12.999444007873535	59.79098129272461	-681.5757446289062	-0.1725328862667083	-28.52303695678711	-248.1032867431641	-0.0	-0.0	-0.0	-0.0	-0.0	-0.0	63992.44140625	27090.005859375	-3945.771240234375
0.581	-0.0	-0.0	-0.0	15.442882537841797	59.21345520019531	-672.7229614257812	-2.515308618545532	-31.385467529296875	-273.14013671875	-0.0	-0.0	-0.0	-0.0	-0.0	-0.0	70133.3515625	29365.4375	-4937.5380859375
0.5815	-0.0	-0.0	-0.0	16.62373161315918	58.92157745361328	-665.2194213867188	-3.579519033432007	-34.34165954589844	-297.53839111328125	-0.0	-0.0	-0.0	-0.0	-0.0	-0.0	76034.109375	31834.580078125	-5759.056640625
0.582	-0.0	-0.0	-0.0	17.946516036987305	58.50651550292969	-653.7019653320312	-3.918735027313232	-36.89739608764648	-319.6562805175781	-0.0	-0.0	-0.0	-0.0	-0.0	-0.0	82256.1640625	34158.359375	-6196.43408203125
0.5825	-0.0	-0.0	-0.0	18.25107192993164	58.31330490112305	-643.053466796875	-5.4633636474609375	-39.21482849121094	-343.6375732421875	-0.0	-0.0	-0.0	-0.0	-0.0	-0.0	88248.796875	36395.58203125	-6895.9033203125
0.583	-0.0	-0.0	-0.0	18.97199440002441	58.21674346923828	-630.072998046875	-6.861089706420898	-41.5931396484375	-368.7731628417969	-0.0	-0.0	-0.0	-0.0	-0.0	-0.0	94239.1875	38501.0	-7906.07861328125
0.5835	-0.0	-0.0	-0.0	18.77872085571289	57.70452499389648	-614.62158203125	-8.286910057067871	-44.7123908996582	-394.3704223632813	-0.0	-0.0	-0.0	-0.0	-0.0	-0.0	100514.4453125	40368.05859375	-8822.4228515625
0.584	-0.0	-0.0	-0.0	18.27347755432129	57.93476104736328	-596.1409301757812	-8.442461013793945	-49.099876403808594	-420.2921752929688	-0.0	-0.0	-0.0	-0.0	-0.0	-0.0	107360.2734375	42314.1484375	-9206.98828125
0.5845	-0.0	-0.0	-0.0	17.595365524291992	56.70969009399414	-575.1321411132812	-9.011552810668944	-52.86790466308594	-448.7764587402344	-0.0	-0.0	-0.0	-0.0	-0.0	-0.0	114151.5	43336.97265625	-9368.9638671875
0.585	-0.0	-0.0	-0.0	16.76314926147461	55.493282318115234	-553.7048950195312	-9.048500061035156	-55.98845672607422	-474.26263427734375	-0.0	-0.0	-0.0	-0.0	-0.0	-0.0	120839.015625	44504.8203125	-9654.02734375
0.5855	-0.0	-0.0	-0.0	15.709877014160156	54.36954498291016	-534.0997314453125	-9.454984664916992	-59.60924911499024	-500.3292541503906	-0.0	-0.0	-0.0	-0.0	-0.0	-0.0	127510.0390625	45172.23046875	-10020.8701171875
0.586	-0.0	-0.0	-0.0	13.92587661743164	52.19295883178711	-509.9918212890625	-10.364672660827637	-61.56021881103516	-524.4827270507812	-0.0	-0.0	-0.0	-0.0	-0.0	-0.0	133889.46875	45705.50390625	-10341.2490234375
0.5865	-0.0	-0.0	-0.0	12.005846977233888	50.14768600463867	-487.9832763671875	-11.005934715270996	-63.05319213867188	-546.1859741210938	-0.0	-0.0	-0.0	-0.0	-0.0	-0.0	139131.46875	46077.328125	-10746.935546875
